<?xml version="1.0" encoding="UTF-8" standalone="no"?>
<!DOCTYPE svg PUBLIC "-//W3C//DTD SVG 1.1//EN"
 "http://www.w3.org/Graphics/SVG/1.1/DTD/svg11.dtd">
<!-- Generated by graphviz version 2.34.0 (20130919.0635)
 -->
<!-- Title: go&#45;deps&#45;of&#45;github.com/ToQoz/go&#45;deps Pages: 1 -->
<svg width="688pt" height="188pt"
 viewBox="0.00 0.00 688.00 188.00" xmlns="http://www.w3.org/2000/svg" xmlns:xlink="http://www.w3.org/1999/xlink">
<g id="graph0" class="graph" transform="scale(1 1) rotate(0) translate(4 184)">
<title>go&#45;deps&#45;of&#45;github.com/ToQoz/go&#45;deps</title>
<polygon fill="white" stroke="white" points="-4,4 -4,-184 684,-184 684,4 -4,4"/>
<!-- github.com/ToQoz/go&#45;deps -->
<g id="node1" class="node"><title>github.com/ToQoz/go&#45;deps</title>
<ellipse fill="none" stroke="black" cx="327" cy="-162" rx="116.259" ry="18"/>
<text text-anchor="middle" x="327" y="-156.4" font-family="Times,serif" font-size="14.00">github.com/ToQoz/go&#45;deps</text>
</g>
<!-- bytes -->
<g id="node2" class="node"><title>bytes</title>
<ellipse fill="none" stroke="black" cx="31" cy="-90" rx="31.1319" ry="18"/>
<text text-anchor="middle" x="31" y="-84.4" font-family="Times,serif" font-size="14.00">bytes</text>
</g>
<!-- github.com/ToQoz/go&#45;deps&#45;&gt;bytes -->
<g id="edge1" class="edge"><title>github.com/ToQoz/go&#45;deps&#45;&gt;bytes</title>
<path fill="none" stroke="black" d="M247.829,-148.776C196.719,-139.869 129.156,-126.182 71,-108 68.7517,-107.297 66.4569,-106.513 64.1603,-105.677"/>
<polygon fill="black" stroke="black" points="65.4127,-102.409 54.8245,-102.033 62.8674,-108.93 65.4127,-102.409"/>
</g>
<!-- flag -->
<g id="node3" class="node"><title>flag</title>
<ellipse fill="none" stroke="black" cx="107" cy="-90" rx="27" ry="18"/>
<text text-anchor="middle" x="107" y="-84.4" font-family="Times,serif" font-size="14.00">flag</text>
</g>
<!-- github.com/ToQoz/go&#45;deps&#45;&gt;flag -->
<g id="edge2" class="edge"><title>github.com/ToQoz/go&#45;deps&#45;&gt;flag</title>
<path fill="none" stroke="black" d="M271.281,-146.132C235.71,-136.24 188.784,-122.448 148,-108 144.877,-106.894 141.646,-105.679 138.432,-104.424"/>
<polygon fill="black" stroke="black" points="139.547,-101.1 128.964,-100.606 136.929,-107.592 139.547,-101.1"/>
</g>
<!-- fmt -->
<g id="node4" class="node"><title>fmt</title>
<ellipse fill="none" stroke="black" cx="56" cy="-18" rx="27" ry="18"/>
<text text-anchor="middle" x="56" y="-12.4" font-family="Times,serif" font-size="14.00">fmt</text>
</g>
<!-- github.com/ToQoz/go&#45;deps&#45;&gt;fmt -->
<g id="edge3" class="edge"><title>github.com/ToQoz/go&#45;deps&#45;&gt;fmt</title>
<path fill="none" stroke="black" d="M269.77,-146.198C241.769,-137.501 208.301,-124.863 181,-108 161.207,-95.7746 161.481,-86.1305 143,-72 124.862,-58.1323 102.894,-44.7734 85.5707,-34.9366"/>
<polygon fill="black" stroke="black" points="86.9148,-31.6782 76.4783,-29.8532 83.4988,-37.7881 86.9148,-31.6782"/>
</g>
<!-- github.com/ToQoz/go&#45;deps/deps -->
<g id="node5" class="node"><title>github.com/ToQoz/go&#45;deps/deps</title>
<ellipse fill="none" stroke="black" cx="327" cy="-90" rx="137.334" ry="18"/>
<text text-anchor="middle" x="327" y="-84.4" font-family="Times,serif" font-size="14.00">github.com/ToQoz/go&#45;deps/deps</text>
</g>
<!-- github.com/ToQoz/go&#45;deps&#45;&gt;github.com/ToQoz/go&#45;deps/deps -->
<g id="edge4" class="edge"><title>github.com/ToQoz/go&#45;deps&#45;&gt;github.com/ToQoz/go&#45;deps/deps</title>
<path fill="none" stroke="red" d="M327,-143.697C327,-135.983 327,-126.712 327,-118.112"/>
<polygon fill="red" stroke="red" points="330.5,-118.104 327,-108.104 323.5,-118.104 330.5,-118.104"/>
</g>
<!-- os -->
<g id="node8" class="node"><title>os</title>
<ellipse fill="none" stroke="black" cx="426" cy="-18" rx="27" ry="18"/>
<text text-anchor="middle" x="426" y="-12.4" font-family="Times,serif" font-size="14.00">os</text>
</g>
<!-- github.com/ToQoz/go&#45;deps&#45;&gt;os -->
<g id="edge12" class="edge"><title>github.com/ToQoz/go&#45;deps&#45;&gt;os</title>
<path fill="none" stroke="black" d="M410.16,-149.371C434.401,-141.685 458.298,-128.978 473,-108 488.356,-86.0889 468.526,-58.5477 450.109,-39.9508"/>
<polygon fill="black" stroke="black" points="452.051,-36.9636 442.409,-32.5709 447.207,-42.0172 452.051,-36.9636"/>
</g>
<!-- path/filepath -->
<g id="node9" class="node"><title>path/filepath</title>
<ellipse fill="none" stroke="black" cx="530" cy="-18" rx="58.9688" ry="18"/>
<text text-anchor="middle" x="530" y="-12.4" font-family="Times,serif" font-size="14.00">path/filepath</text>
</g>
<!-- github.com/ToQoz/go&#45;deps&#45;&gt;path/filepath -->
<g id="edge13" class="edge"><title>github.com/ToQoz/go&#45;deps&#45;&gt;path/filepath</title>
<path fill="none" stroke="black" d="M406.209,-148.783C434.973,-141.054 466.019,-128.469 489,-108 507.282,-91.7162 517.967,-65.6142 523.818,-45.879"/>
<polygon fill="black" stroke="black" points="527.196,-46.7935 526.451,-36.2249 520.443,-44.9511 527.196,-46.7935"/>
</g>
<!-- strings -->
<g id="node11" class="node"><title>strings</title>
<ellipse fill="none" stroke="black" cx="644" cy="-18" rx="36.1907" ry="18"/>
<text text-anchor="middle" x="644" y="-12.4" font-family="Times,serif" font-size="14.00">strings</text>
</g>
<!-- github.com/ToQoz/go&#45;deps&#45;&gt;strings -->
<g id="edge14" class="edge"><title>github.com/ToQoz/go&#45;deps&#45;&gt;strings</title>
<path fill="none" stroke="black" d="M395.494,-147.42C432.011,-138.775 477.097,-125.814 515,-108 553.716,-89.8034 593.535,-60.3875 618.498,-40.397"/>
<polygon fill="black" stroke="black" points="620.811,-43.0275 626.371,-34.0088 616.401,-37.5917 620.811,-43.0275"/>
</g>
<!-- github.com/ToQoz/go&#45;deps/deps&#45;&gt;fmt -->
<g id="edge5" class="edge"><title>github.com/ToQoz/go&#45;deps/deps&#45;&gt;fmt</title>
<path fill="none" stroke="black" d="M246.653,-75.4106C200.681,-66.5178 142.323,-53.3211 92,-36 90.0884,-35.342 88.1436,-34.6125 86.1982,-33.8363"/>
<polygon fill="black" stroke="black" points="87.1839,-30.4489 76.6168,-29.6823 84.3995,-36.8713 87.1839,-30.4489"/>
</g>
<!-- go/build -->
<g id="node6" class="node"><title>go/build</title>
<ellipse fill="none" stroke="black" cx="144" cy="-18" rx="43.3424" ry="18"/>
<text text-anchor="middle" x="144" y="-12.4" font-family="Times,serif" font-size="14.00">go/build</text>
</g>
<!-- github.com/ToQoz/go&#45;deps/deps&#45;&gt;go/build -->
<g id="edge6" class="edge"><title>github.com/ToQoz/go&#45;deps/deps&#45;&gt;go/build</title>
<path fill="none" stroke="black" d="M284.556,-72.7646C254.39,-61.2256 214.124,-45.8233 184.423,-34.4622"/>
<polygon fill="black" stroke="black" points="185.375,-31.0794 174.785,-30.7756 182.874,-37.6174 185.375,-31.0794"/>
</g>
<!-- io/ioutil -->
<g id="node7" class="node"><title>io/ioutil</title>
<ellipse fill="none" stroke="black" cx="247" cy="-18" rx="41.4294" ry="18"/>
<text text-anchor="middle" x="247" y="-12.4" font-family="Times,serif" font-size="14.00">io/ioutil</text>
</g>
<!-- github.com/ToQoz/go&#45;deps/deps&#45;&gt;io/ioutil -->
<g id="edge7" class="edge"><title>github.com/ToQoz/go&#45;deps/deps&#45;&gt;io/ioutil</title>
<path fill="none" stroke="black" d="M307.634,-72.055C296.964,-62.7183 283.596,-51.0211 272.129,-40.9875"/>
<polygon fill="black" stroke="black" points="274.381,-38.3074 264.55,-34.3564 269.771,-43.5755 274.381,-38.3074"/>
</g>
<!-- github.com/ToQoz/go&#45;deps/deps&#45;&gt;os -->
<g id="edge8" class="edge"><title>github.com/ToQoz/go&#45;deps/deps&#45;&gt;os</title>
<path fill="none" stroke="black" d="M350.713,-72.2333C365.441,-61.8194 384.395,-48.4177 399.6,-37.6665"/>
<polygon fill="black" stroke="black" points="401.915,-40.3165 408.059,-31.6853 397.874,-34.6009 401.915,-40.3165"/>
</g>
<!-- github.com/ToQoz/go&#45;deps/deps&#45;&gt;path/filepath -->
<g id="edge9" class="edge"><title>github.com/ToQoz/go&#45;deps/deps&#45;&gt;path/filepath</title>
<path fill="none" stroke="black" d="M373.318,-73.0283C405.981,-61.7653 449.597,-46.7252 482.516,-35.3737"/>
<polygon fill="black" stroke="black" points="484.053,-38.5463 492.365,-31.9775 481.771,-31.9286 484.053,-38.5463"/>
</g>
<!-- regexp -->
<g id="node10" class="node"><title>regexp</title>
<ellipse fill="none" stroke="black" cx="344" cy="-18" rx="36.967" ry="18"/>
<text text-anchor="middle" x="344" y="-12.4" font-family="Times,serif" font-size="14.00">regexp</text>
</g>
<!-- github.com/ToQoz/go&#45;deps/deps&#45;&gt;regexp -->
<g id="edge10" class="edge"><title>github.com/ToQoz/go&#45;deps/deps&#45;&gt;regexp</title>
<path fill="none" stroke="black" d="M331.202,-71.6966C333.096,-63.8979 335.377,-54.5085 337.484,-45.8292"/>
<polygon fill="black" stroke="black" points="340.887,-46.6479 339.846,-36.1043 334.085,-44.9959 340.887,-46.6479"/>
</g>
<!-- github.com/ToQoz/go&#45;deps/deps&#45;&gt;strings -->
<g id="edge11" class="edge"><title>github.com/ToQoz/go&#45;deps/deps&#45;&gt;strings</title>
<path fill="none" stroke="black" d="M412.657,-75.8786C466.394,-66.7558 536.842,-53.1611 598,-36 600.938,-35.1755 603.956,-34.2486 606.972,-33.2642"/>
<polygon fill="black" stroke="black" points="608.193,-36.5457 616.507,-29.9788 605.912,-29.9276 608.193,-36.5457"/>
</g>
</g>
</svg>
