<?xml version="1.0" encoding="UTF-8" standalone="no"?>
<!DOCTYPE svg PUBLIC "-//W3C//DTD SVG 1.1//EN"
 "http://www.w3.org/Graphics/SVG/1.1/DTD/svg11.dtd">
<!-- Generated by graphviz version 2.34.0 (20130919.0635)
 -->
<!-- Title: godeps&#45;of&#45;github.com/ToQoz/godeps Pages: 1 -->
<svg width="702pt" height="188pt"
 viewBox="0.00 0.00 702.00 188.00" xmlns="http://www.w3.org/2000/svg" xmlns:xlink="http://www.w3.org/1999/xlink">
<g id="graph0" class="graph" transform="scale(1 1) rotate(0) translate(4 184)">
<title>godeps&#45;of&#45;github.com/ToQoz/godeps</title>
<polygon fill="white" stroke="white" points="-4,4 -4,-184 698,-184 698,4 -4,4"/>
<!-- github.com/ToQoz/godeps -->
<g id="node1" class="node"><title>github.com/ToQoz/godeps</title>
<ellipse fill="none" stroke="black" cx="334" cy="-162" rx="113.434" ry="18"/>
<text text-anchor="middle" x="334" y="-156.4" font-family="Times,serif" font-size="14.00">github.com/ToQoz/godeps</text>
</g>
<!-- bytes -->
<g id="node2" class="node"><title>bytes</title>
<ellipse fill="none" stroke="black" cx="31" cy="-90" rx="31.1319" ry="18"/>
<text text-anchor="middle" x="31" y="-84.4" font-family="Times,serif" font-size="14.00">bytes</text>
</g>
<!-- github.com/ToQoz/godeps&#45;&gt;bytes -->
<g id="edge1" class="edge"><title>github.com/ToQoz/godeps&#45;&gt;bytes</title>
<path fill="none" stroke="black" d="M253.824,-149.189C201.177,-140.376 131.176,-126.639 71,-108 68.7498,-107.303 66.4536,-106.523 64.156,-105.691"/>
<polygon fill="black" stroke="black" points="65.4063,-102.422 54.8179,-102.055 62.8662,-108.945 65.4063,-102.422"/>
</g>
<!-- flag -->
<g id="node3" class="node"><title>flag</title>
<ellipse fill="none" stroke="black" cx="107" cy="-90" rx="27" ry="18"/>
<text text-anchor="middle" x="107" y="-84.4" font-family="Times,serif" font-size="14.00">flag</text>
</g>
<!-- github.com/ToQoz/godeps&#45;&gt;flag -->
<g id="edge2" class="edge"><title>github.com/ToQoz/godeps&#45;&gt;flag</title>
<path fill="none" stroke="black" d="M276.482,-146.45C239.457,-136.633 190.487,-122.806 148,-108 144.871,-106.91 141.637,-105.706 138.42,-104.458"/>
<polygon fill="black" stroke="black" points="139.533,-101.133 128.949,-100.648 136.921,-107.627 139.533,-101.133"/>
</g>
<!-- fmt -->
<g id="node4" class="node"><title>fmt</title>
<ellipse fill="none" stroke="black" cx="70" cy="-18" rx="27" ry="18"/>
<text text-anchor="middle" x="70" y="-12.4" font-family="Times,serif" font-size="14.00">fmt</text>
</g>
<!-- github.com/ToQoz/godeps&#45;&gt;fmt -->
<g id="edge3" class="edge"><title>github.com/ToQoz/godeps&#45;&gt;fmt</title>
<path fill="none" stroke="black" d="M274.009,-146.632C244.66,-138.042 209.59,-125.369 181,-108 161.117,-95.9209 160.895,-86.8657 143,-72 128.235,-59.7345 110.875,-47.0653 96.7896,-37.1903"/>
<polygon fill="black" stroke="black" points="98.7053,-34.2595 88.4949,-31.4314 94.7131,-40.0096 98.7053,-34.2595"/>
</g>
<!-- github.com/ToQoz/godeps/godeps -->
<g id="node5" class="node"><title>github.com/ToQoz/godeps/godeps</title>
<ellipse fill="none" stroke="black" cx="334" cy="-90" rx="143.496" ry="18"/>
<text text-anchor="middle" x="334" y="-84.4" font-family="Times,serif" font-size="14.00">github.com/ToQoz/godeps/godeps</text>
</g>
<!-- github.com/ToQoz/godeps&#45;&gt;github.com/ToQoz/godeps/godeps -->
<g id="edge4" class="edge"><title>github.com/ToQoz/godeps&#45;&gt;github.com/ToQoz/godeps/godeps</title>
<path fill="none" stroke="red" d="M334,-143.697C334,-135.983 334,-126.712 334,-118.112"/>
<polygon fill="red" stroke="red" points="337.5,-118.104 334,-108.104 330.5,-118.104 337.5,-118.104"/>
</g>
<!-- os -->
<g id="node8" class="node"><title>os</title>
<ellipse fill="none" stroke="black" cx="440" cy="-18" rx="27" ry="18"/>
<text text-anchor="middle" x="440" y="-12.4" font-family="Times,serif" font-size="14.00">os</text>
</g>
<!-- github.com/ToQoz/godeps&#45;&gt;os -->
<g id="edge12" class="edge"><title>github.com/ToQoz/godeps&#45;&gt;os</title>
<path fill="none" stroke="black" d="M420.097,-150.282C445.466,-142.659 470.544,-129.758 486,-108 501.424,-86.2873 481.939,-58.7072 463.787,-40.047"/>
<polygon fill="black" stroke="black" points="465.797,-37.1179 456.196,-32.639 460.908,-42.128 465.797,-37.1179"/>
</g>
<!-- path/filepath -->
<g id="node9" class="node"><title>path/filepath</title>
<ellipse fill="none" stroke="black" cx="544" cy="-18" rx="58.9688" ry="18"/>
<text text-anchor="middle" x="544" y="-12.4" font-family="Times,serif" font-size="14.00">path/filepath</text>
</g>
<!-- github.com/ToQoz/godeps&#45;&gt;path/filepath -->
<g id="edge13" class="edge"><title>github.com/ToQoz/godeps&#45;&gt;path/filepath</title>
<path fill="none" stroke="black" d="M415.578,-149.369C445.511,-141.71 477.925,-129.019 502,-108 520.522,-91.8287 531.493,-65.7127 537.548,-45.9437"/>
<polygon fill="black" stroke="black" points="540.931,-46.8456 540.281,-36.2706 534.194,-44.9424 540.931,-46.8456"/>
</g>
<!-- strings -->
<g id="node11" class="node"><title>strings</title>
<ellipse fill="none" stroke="black" cx="658" cy="-18" rx="36.1907" ry="18"/>
<text text-anchor="middle" x="658" y="-12.4" font-family="Times,serif" font-size="14.00">strings</text>
</g>
<!-- github.com/ToQoz/godeps&#45;&gt;strings -->
<g id="edge14" class="edge"><title>github.com/ToQoz/godeps&#45;&gt;strings</title>
<path fill="none" stroke="black" d="M404.208,-147.764C441.967,-139.189 488.71,-126.186 528,-108 567.026,-89.9357 607.151,-60.4896 632.305,-40.4561"/>
<polygon fill="black" stroke="black" points="634.655,-43.0574 640.238,-34.0531 630.258,-37.6103 634.655,-43.0574"/>
</g>
<!-- github.com/ToQoz/godeps/godeps&#45;&gt;fmt -->
<g id="edge5" class="edge"><title>github.com/ToQoz/godeps/godeps&#45;&gt;fmt</title>
<path fill="none" stroke="black" d="M255.006,-74.948C210.572,-65.9784 154.458,-52.8578 106,-36 104.091,-35.3357 102.147,-34.6013 100.203,-33.8215"/>
<polygon fill="black" stroke="black" points="101.192,-30.4347 90.6253,-29.658 98.401,-36.8544 101.192,-30.4347"/>
</g>
<!-- go/build -->
<g id="node6" class="node"><title>go/build</title>
<ellipse fill="none" stroke="black" cx="158" cy="-18" rx="43.3424" ry="18"/>
<text text-anchor="middle" x="158" y="-12.4" font-family="Times,serif" font-size="14.00">go/build</text>
</g>
<!-- github.com/ToQoz/godeps/godeps&#45;&gt;go/build -->
<g id="edge6" class="edge"><title>github.com/ToQoz/godeps/godeps&#45;&gt;go/build</title>
<path fill="none" stroke="black" d="M292.736,-72.5881C264.016,-61.1654 225.94,-46.0214 197.592,-34.7469"/>
<polygon fill="black" stroke="black" points="198.588,-31.3763 188.002,-30.9328 196.001,-37.8808 198.588,-31.3763"/>
</g>
<!-- io/ioutil -->
<g id="node7" class="node"><title>io/ioutil</title>
<ellipse fill="none" stroke="black" cx="261" cy="-18" rx="41.4294" ry="18"/>
<text text-anchor="middle" x="261" y="-12.4" font-family="Times,serif" font-size="14.00">io/ioutil</text>
</g>
<!-- github.com/ToQoz/godeps/godeps&#45;&gt;io/ioutil -->
<g id="edge7" class="edge"><title>github.com/ToQoz/godeps/godeps&#45;&gt;io/ioutil</title>
<path fill="none" stroke="black" d="M316.329,-72.055C306.914,-63.0268 295.197,-51.7916 284.973,-41.9875"/>
<polygon fill="black" stroke="black" points="287.148,-39.2244 277.508,-34.8294 282.303,-44.2769 287.148,-39.2244"/>
</g>
<!-- github.com/ToQoz/godeps/godeps&#45;&gt;os -->
<g id="edge8" class="edge"><title>github.com/ToQoz/godeps/godeps&#45;&gt;os</title>
<path fill="none" stroke="black" d="M359.39,-72.2333C375.513,-61.5856 396.367,-47.8143 412.824,-36.9464"/>
<polygon fill="black" stroke="black" points="415.041,-39.6769 421.457,-31.2456 411.183,-33.8356 415.041,-39.6769"/>
</g>
<!-- github.com/ToQoz/godeps/godeps&#45;&gt;path/filepath -->
<g id="edge9" class="edge"><title>github.com/ToQoz/godeps/godeps&#45;&gt;path/filepath</title>
<path fill="none" stroke="black" d="M381.915,-73.0283C416.07,-61.6433 461.803,-46.3989 495.982,-35.0061"/>
<polygon fill="black" stroke="black" points="497.363,-38.235 505.743,-31.7523 495.149,-31.5942 497.363,-38.235"/>
</g>
<!-- regexp -->
<g id="node10" class="node"><title>regexp</title>
<ellipse fill="none" stroke="black" cx="358" cy="-18" rx="36.967" ry="18"/>
<text text-anchor="middle" x="358" y="-12.4" font-family="Times,serif" font-size="14.00">regexp</text>
</g>
<!-- github.com/ToQoz/godeps/godeps&#45;&gt;regexp -->
<g id="edge10" class="edge"><title>github.com/ToQoz/godeps/godeps&#45;&gt;regexp</title>
<path fill="none" stroke="black" d="M339.933,-71.6966C342.606,-63.8979 345.826,-54.5085 348.801,-45.8292"/>
<polygon fill="black" stroke="black" points="352.203,-46.699 352.136,-36.1043 345.582,-44.4286 352.203,-46.699"/>
</g>
<!-- github.com/ToQoz/godeps/godeps&#45;&gt;strings -->
<g id="edge11" class="edge"><title>github.com/ToQoz/godeps/godeps&#45;&gt;strings</title>
<path fill="none" stroke="black" d="M423.132,-75.8673C478.101,-66.819 549.751,-53.3078 612,-36 614.94,-35.1825 617.959,-34.2606 620.976,-33.2797"/>
<polygon fill="black" stroke="black" points="622.194,-36.5621 630.513,-30.0007 619.918,-29.9425 622.194,-36.5621"/>
</g>
</g>
</svg>
